<svg width="1167" height="512" viewBox="0 0 1167 512" fill="none" xmlns="http://www.w3.org/2000/svg">
<g filter="url(#filter0_i_3_2)">
<circle cx="256" cy="256" r="200" fill="#EEB206"/>
</g>
<circle cx="256" cy="256" r="197.5" stroke="black" stroke-width="5"/>
<g style="mix-blend-mode:hard-light">
<path d="M157.768 320H139.393L197.484 183.145H217.104L275.482 320H255.863L238.158 276.934H192.891L197.771 262.578H232.225L206.672 200.562L157.768 320ZM292.23 320V219.512H304.193L307.16 232.145C316.794 223.723 327.29 219.512 338.646 219.512C353.193 219.512 363.115 224.105 368.41 233.293C379.32 224.105 390.39 219.512 401.619 219.512C424.715 219.512 436.264 232.24 436.264 257.697V320H418.559V256.74C418.559 241.747 412.242 234.25 399.609 234.25C390.167 234.25 381.33 238.589 373.1 247.266V320H355.395V257.027C355.395 241.842 349.142 234.25 336.637 234.25C326.684 234.25 317.783 238.589 309.936 247.266V320H292.23ZM460.285 289.662C460.285 269.054 473.875 258.75 501.055 258.75C509.796 258.75 518.536 259.388 527.277 260.664V251.189C527.277 239.641 518.249 233.867 500.193 233.867C489.857 233.867 479.266 235.462 468.42 238.652V224.297C479.266 221.107 489.857 219.512 500.193 219.512C530.053 219.512 544.982 229.911 544.982 250.711V320H535.029L528.904 310.047C518.887 316.682 507.977 320 496.174 320C472.248 320 460.285 309.887 460.285 289.662ZM501.055 273.105C485.678 273.105 477.99 278.529 477.99 289.375C477.99 300.221 484.051 305.645 496.174 305.645C508.424 305.645 518.792 302.391 527.277 295.883V275.02C518.536 273.743 509.796 273.105 501.055 273.105ZM573.789 320V219.512H585.752L588.91 232.336C599.182 223.786 610.475 219.512 622.789 219.512C647.863 219.512 660.4 231.985 660.4 256.932V320H642.695V256.645C642.695 241.715 635.262 234.25 620.396 234.25C610.252 234.25 600.618 238.493 591.494 246.979V320H573.789ZM684.422 289.662C684.422 269.054 698.012 258.75 725.191 258.75C733.932 258.75 742.673 259.388 751.414 260.664V251.189C751.414 239.641 742.386 233.867 724.33 233.867C713.994 233.867 703.403 235.462 692.557 238.652V224.297C703.403 221.107 713.994 219.512 724.33 219.512C754.189 219.512 769.119 229.911 769.119 250.711V320H759.166L753.041 310.047C743.024 316.682 732.114 320 720.311 320C696.385 320 684.422 309.887 684.422 289.662ZM725.191 273.105C709.815 273.105 702.127 278.529 702.127 289.375C702.127 300.221 708.188 305.645 720.311 305.645C732.561 305.645 742.928 302.391 751.414 295.883V275.02C742.673 273.743 733.932 273.105 725.191 273.105ZM797.926 203.242H809.027L812.855 219.512H840.035V233.867H815.631V291.576C815.631 300.955 819.682 305.645 827.785 305.645H840.035V320H823.191C806.348 320 797.926 310.972 797.926 292.916V203.242ZM861.664 315.215V299.902C873.467 303.73 885.398 305.645 897.457 305.645C913.471 305.645 921.479 300.859 921.479 291.289C921.479 282.357 915.896 277.891 904.73 277.891H890.375C868.682 277.891 857.836 268.001 857.836 248.223C857.836 229.082 871.777 219.512 899.658 219.512C911.653 219.512 923.552 221.107 935.355 224.297V239.609C923.552 235.781 911.653 233.867 899.658 233.867C882.942 233.867 874.584 238.652 874.584 248.223C874.584 257.155 879.848 261.621 890.375 261.621H904.73C927.699 261.621 939.184 271.51 939.184 291.289C939.184 310.43 925.275 320 897.457 320C885.398 320 873.467 318.405 861.664 315.215ZM1049.72 219.512V320H1037.57L1034.5 307.176C1022.32 315.725 1010.07 320 997.754 320C974.658 320 963.109 307.527 963.109 282.58V219.512H980.814V282.867C980.814 297.797 988.215 305.262 1003.02 305.262C1013.16 305.262 1022.83 301.019 1032.02 292.533V219.512H1049.72Z" fill="white"/>
<path d="M157.768 320V325H161.123L162.395 321.895L157.768 320ZM139.393 320L134.79 318.046L131.838 325H139.393V320ZM197.484 183.145V178.145H194.175L192.882 181.191L197.484 183.145ZM217.104 183.145L221.703 181.183L220.407 178.145H217.104V183.145ZM275.482 320V325H283.051L280.081 318.038L275.482 320ZM255.863 320L251.239 321.901L252.513 325H255.863V320ZM238.158 276.934L242.783 275.032L241.509 271.934H238.158V276.934ZM192.891 276.934L188.157 275.324L185.91 281.934H192.891V276.934ZM197.771 262.578V257.578H194.19L193.038 260.969L197.771 262.578ZM232.225 262.578V267.578H239.693L236.848 260.673L232.225 262.578ZM206.672 200.562L211.295 198.658L206.657 187.403L202.045 198.668L206.672 200.562ZM157.768 315H139.393V325H157.768V315ZM143.995 321.954L202.087 185.098L192.882 181.191L134.79 318.046L143.995 321.954ZM197.484 188.145H217.104V178.145H197.484V188.145ZM212.504 185.106L270.883 321.962L280.081 318.038L221.703 181.183L212.504 185.106ZM275.482 315H255.863V325H275.482V315ZM260.488 318.099L242.783 275.032L233.534 278.835L251.239 321.901L260.488 318.099ZM238.158 271.934H192.891V281.934H238.158V271.934ZM197.624 278.543L202.505 264.188L193.038 260.969L188.157 275.324L197.624 278.543ZM197.771 267.578H232.225V257.578H197.771V267.578ZM236.848 260.673L211.295 198.658L202.049 202.467L227.602 264.483L236.848 260.673ZM202.045 198.668L153.14 318.105L162.395 321.895L211.299 202.457L202.045 198.668ZM292.23 320H287.23V325H292.23V320ZM292.23 219.512V214.512H287.23V219.512H292.23ZM304.193 219.512L309.061 218.369L308.155 214.512H304.193V219.512ZM307.16 232.145L302.293 233.288L304.193 241.38L310.451 235.909L307.16 232.145ZM368.41 233.293L364.078 235.79L367.061 240.965L371.631 237.118L368.41 233.293ZM436.264 320V325H441.264V320H436.264ZM418.559 320H413.559V325H418.559V320ZM373.1 247.266L369.472 243.825L368.1 245.271V247.266H373.1ZM373.1 320V325H378.1V320H373.1ZM355.395 320H350.395V325H355.395V320ZM309.936 247.266L306.227 243.912L304.936 245.34V247.266H309.936ZM309.936 320V325H314.936V320H309.936ZM297.23 320V219.512H287.23V320H297.23ZM292.23 224.512H304.193V214.512H292.23V224.512ZM299.326 220.655L302.293 233.288L312.028 231.001L309.061 218.369L299.326 220.655ZM310.451 235.909C319.297 228.176 328.655 224.512 338.646 224.512V214.512C325.925 214.512 314.291 219.27 303.869 228.38L310.451 235.909ZM338.646 224.512C352.155 224.512 359.995 228.706 364.078 235.79L372.742 230.796C366.234 219.505 354.232 214.512 338.646 214.512V224.512ZM371.631 237.118C381.889 228.479 391.858 224.512 401.619 224.512V214.512C388.922 214.512 376.752 219.732 365.189 229.468L371.631 237.118ZM401.619 224.512C412.264 224.512 419.368 227.423 423.899 232.418C428.515 237.505 431.264 245.626 431.264 257.697H441.264C441.264 244.312 438.238 233.339 431.306 225.698C424.289 217.965 414.07 214.512 401.619 214.512V224.512ZM431.264 257.697V320H441.264V257.697H431.264ZM436.264 315H418.559V325H436.264V315ZM423.559 320V256.74H413.559V320H423.559ZM423.559 256.74C423.559 248.662 421.875 241.671 417.645 236.651C413.277 231.466 406.943 229.25 399.609 229.25V239.25C404.909 239.25 408.049 240.782 409.998 243.094C412.084 245.571 413.559 249.825 413.559 256.74H423.559ZM399.609 229.25C388.45 229.25 378.38 234.434 369.472 243.825L376.727 250.707C384.28 242.743 391.883 239.25 399.609 239.25V229.25ZM368.1 247.266V320H378.1V247.266H368.1ZM373.1 315H355.395V325H373.1V315ZM360.395 320V257.027H350.395V320H360.395ZM360.395 257.027C360.395 248.875 358.736 241.831 354.565 236.766C350.241 231.515 343.944 229.25 336.637 229.25V239.25C341.835 239.25 344.917 240.781 346.845 243.123C348.927 245.65 350.395 249.995 350.395 257.027H360.395ZM336.637 229.25C325.02 229.25 314.841 234.388 306.227 243.912L313.644 250.619C320.726 242.789 328.347 239.25 336.637 239.25V229.25ZM304.936 247.266V320H314.936V247.266H304.936ZM309.936 315H292.23V325H309.936V315ZM527.277 260.664L526.555 265.612L532.277 266.447V260.664H527.277ZM468.42 238.652H463.42V245.335L469.831 243.449L468.42 238.652ZM468.42 224.297L467.009 219.5L463.42 220.556V224.297H468.42ZM544.982 320V325H549.982V320H544.982ZM535.029 320L530.771 322.62L532.235 325H535.029V320ZM528.904 310.047L533.163 307.426L530.453 303.023L526.143 305.878L528.904 310.047ZM527.277 295.883L530.32 299.85L532.277 298.349V295.883H527.277ZM527.277 275.02H532.277V270.696L528 270.072L527.277 275.02ZM465.285 289.662C465.285 280.558 468.215 274.468 473.498 270.462C479.043 266.258 487.954 263.75 501.055 263.75V253.75C486.975 253.75 475.502 256.394 467.457 262.494C459.15 268.792 455.285 278.158 455.285 289.662H465.285ZM501.055 263.75C509.551 263.75 518.051 264.37 526.555 265.612L528 255.717C519.022 254.406 510.04 253.75 501.055 253.75V263.75ZM532.277 260.664V251.189H522.277V260.664H532.277ZM532.277 251.189C532.277 243.868 529.28 237.874 523.2 233.986C517.502 230.341 509.594 228.867 500.193 228.867V238.867C508.849 238.867 514.483 240.28 517.812 242.41C520.761 244.296 522.277 246.963 522.277 251.189H532.277ZM500.193 228.867C489.337 228.867 478.271 230.543 467.009 233.856L469.831 243.449C480.262 240.381 490.377 238.867 500.193 238.867V228.867ZM473.42 238.652V224.297H463.42V238.652H473.42ZM469.831 229.094C480.262 226.026 490.377 224.512 500.193 224.512V214.512C489.337 214.512 478.271 216.188 467.009 219.5L469.831 229.094ZM500.193 224.512C514.696 224.512 524.684 227.065 530.927 231.414C536.842 235.534 539.982 241.676 539.982 250.711H549.982C549.982 238.946 545.658 229.488 536.643 223.209C527.957 217.158 515.55 214.512 500.193 214.512V224.512ZM539.982 250.711V320H549.982V250.711H539.982ZM544.982 315H535.029V325H544.982V315ZM539.288 317.38L533.163 307.426L524.646 312.667L530.771 322.62L539.288 317.38ZM526.143 305.878C516.929 311.982 506.977 315 496.174 315V325C508.978 325 520.845 321.383 531.666 314.215L526.143 305.878ZM496.174 315C484.796 315 477.194 312.578 472.485 308.597C467.937 304.752 465.285 298.763 465.285 289.662H455.285C455.285 300.786 458.615 309.966 466.029 316.234C473.283 322.366 483.626 325 496.174 325V315ZM501.055 268.105C492.931 268.105 485.945 269.51 480.874 273.087C475.485 276.889 472.99 282.613 472.99 289.375H482.99C482.99 285.291 484.34 282.88 486.638 281.259C489.256 279.412 493.802 278.105 501.055 278.105V268.105ZM472.99 289.375C472.99 295.722 474.789 301.355 479.202 305.303C483.509 309.157 489.471 310.645 496.174 310.645V300.645C490.755 300.645 487.624 299.42 485.87 297.851C484.222 296.376 482.99 293.875 482.99 289.375H472.99ZM496.174 310.645C509.357 310.645 520.837 307.123 530.32 299.85L524.235 291.915C516.746 297.658 507.491 300.645 496.174 300.645V310.645ZM532.277 295.883V275.02H522.277V295.883H532.277ZM528 270.072C519.022 268.761 510.04 268.105 501.055 268.105V278.105C509.551 278.105 518.051 278.726 526.555 279.967L528 270.072ZM573.789 320H568.789V325H573.789V320ZM573.789 219.512V214.512H568.789V219.512H573.789ZM585.752 219.512L590.607 218.316L589.67 214.512H585.752V219.512ZM588.91 232.336L584.055 233.532L585.966 241.291L592.109 236.179L588.91 232.336ZM660.4 320V325H665.4V320H660.4ZM642.695 320H637.695V325H642.695V320ZM591.494 246.979L588.089 243.317L586.494 244.801V246.979H591.494ZM591.494 320V325H596.494V320H591.494ZM578.789 320V219.512H568.789V320H578.789ZM573.789 224.512H585.752V214.512H573.789V224.512ZM580.897 220.707L584.055 233.532L593.765 231.14L590.607 218.316L580.897 220.707ZM592.109 236.179C601.565 228.309 611.747 224.512 622.789 224.512V214.512C609.204 214.512 596.8 219.264 585.712 228.493L592.109 236.179ZM622.789 224.512C634.562 224.512 642.472 227.437 647.471 232.411C652.466 237.38 655.4 245.236 655.4 256.932H665.4C665.4 243.681 662.067 232.826 654.524 225.322C646.986 217.823 636.09 214.512 622.789 214.512V224.512ZM655.4 256.932V320H665.4V256.932H655.4ZM660.4 315H642.695V325H660.4V315ZM647.695 320V256.645H637.695V320H647.695ZM647.695 256.645C647.695 248.414 645.644 241.322 640.664 236.321C635.68 231.315 628.606 229.25 620.396 229.25V239.25C627.053 239.25 631.129 240.917 633.578 243.377C636.03 245.84 637.695 249.945 637.695 256.645H647.695ZM620.396 229.25C608.715 229.25 597.916 234.178 588.089 243.317L594.899 250.64C603.32 242.808 611.789 239.25 620.396 239.25V229.25ZM586.494 246.979V320H596.494V246.979H586.494ZM591.494 315H573.789V325H591.494V315ZM751.414 260.664L750.692 265.612L756.414 266.447V260.664H751.414ZM692.557 238.652H687.557V245.335L693.967 243.449L692.557 238.652ZM692.557 224.297L691.146 219.5L687.557 220.556V224.297H692.557ZM769.119 320V325H774.119V320H769.119ZM759.166 320L754.908 322.62L756.372 325H759.166V320ZM753.041 310.047L757.299 307.426L754.59 303.023L750.28 305.878L753.041 310.047ZM751.414 295.883L754.457 299.85L756.414 298.349V295.883H751.414ZM751.414 275.02H756.414V270.696L752.136 270.072L751.414 275.02ZM689.422 289.662C689.422 280.558 692.352 274.468 697.635 270.462C703.18 266.258 712.091 263.75 725.191 263.75V253.75C711.112 253.75 699.638 256.394 691.593 262.494C683.287 268.792 679.422 278.158 679.422 289.662H689.422ZM725.191 263.75C733.688 263.75 742.188 264.37 750.692 265.612L752.136 255.717C743.159 254.406 734.177 253.75 725.191 253.75V263.75ZM756.414 260.664V251.189H746.414V260.664H756.414ZM756.414 251.189C756.414 243.868 753.416 237.874 747.337 233.986C741.639 230.341 733.73 228.867 724.33 228.867V238.867C732.986 238.867 738.619 240.28 741.949 242.41C744.898 244.296 746.414 246.963 746.414 251.189H756.414ZM724.33 228.867C713.474 228.867 702.408 230.543 691.146 233.856L693.967 243.449C704.398 240.381 714.514 238.867 724.33 238.867V228.867ZM697.557 238.652V224.297H687.557V238.652H697.557ZM693.967 229.094C704.398 226.026 714.514 224.512 724.33 224.512V214.512C713.474 214.512 702.408 216.188 691.146 219.5L693.967 229.094ZM724.33 224.512C738.833 224.512 748.821 227.065 755.064 231.414C760.979 235.534 764.119 241.676 764.119 250.711H774.119C774.119 238.946 769.795 229.488 760.78 223.209C752.093 217.158 739.686 214.512 724.33 214.512V224.512ZM764.119 250.711V320H774.119V250.711H764.119ZM769.119 315H759.166V325H769.119V315ZM763.424 317.38L757.299 307.426L748.783 312.667L754.908 322.62L763.424 317.38ZM750.28 305.878C741.066 311.982 731.113 315 720.311 315V325C733.115 325 744.982 321.383 755.802 314.215L750.28 305.878ZM720.311 315C708.932 315 701.331 312.578 696.622 308.597C692.074 304.752 689.422 298.763 689.422 289.662H679.422C679.422 300.786 682.751 309.966 690.166 316.234C697.42 322.366 707.763 325 720.311 325V315ZM725.191 268.105C717.068 268.105 710.081 269.51 705.011 273.087C699.621 276.889 697.127 282.613 697.127 289.375H707.127C707.127 285.291 708.477 282.88 710.775 281.259C713.393 279.412 717.939 278.105 725.191 278.105V268.105ZM697.127 289.375C697.127 295.722 698.926 301.355 703.339 305.303C707.646 309.157 713.607 310.645 720.311 310.645V300.645C714.891 300.645 711.761 299.42 710.007 297.851C708.359 296.376 707.127 293.875 707.127 289.375H697.127ZM720.311 310.645C733.493 310.645 744.974 307.123 754.457 299.85L748.371 291.915C740.883 297.658 731.628 300.645 720.311 300.645V310.645ZM756.414 295.883V275.02H746.414V295.883H756.414ZM752.136 270.072C743.159 268.761 734.177 268.105 725.191 268.105V278.105C733.688 278.105 742.188 278.726 750.692 279.967L752.136 270.072ZM797.926 203.242V198.242H792.926V203.242H797.926ZM809.027 203.242L813.894 202.097L812.987 198.242H809.027V203.242ZM812.855 219.512L807.988 220.657L808.895 224.512H812.855V219.512ZM840.035 219.512H845.035V214.512H840.035V219.512ZM840.035 233.867V238.867H845.035V233.867H840.035ZM815.631 233.867V228.867H810.631V233.867H815.631ZM840.035 305.645H845.035V300.645H840.035V305.645ZM840.035 320V325H845.035V320H840.035ZM797.926 208.242H809.027V198.242H797.926V208.242ZM804.16 204.387L807.988 220.657L817.723 218.367L813.894 202.097L804.16 204.387ZM812.855 224.512H840.035V214.512H812.855V224.512ZM835.035 219.512V233.867H845.035V219.512H835.035ZM840.035 228.867H815.631V238.867H840.035V228.867ZM810.631 233.867V291.576H820.631V233.867H810.631ZM810.631 291.576C810.631 296.872 811.759 301.777 814.886 305.396C818.134 309.155 822.757 310.645 827.785 310.645V300.645C824.711 300.645 823.257 299.789 822.453 298.859C821.528 297.789 820.631 295.66 820.631 291.576H810.631ZM827.785 310.645H840.035V300.645H827.785V310.645ZM835.035 305.645V320H845.035V305.645H835.035ZM840.035 315H823.191V325H840.035V315ZM823.191 315C815.633 315 810.858 312.991 807.898 309.818C804.878 306.58 802.926 301.256 802.926 292.916H792.926C792.926 302.632 795.185 310.85 800.586 316.64C806.049 322.495 813.906 325 823.191 325V315ZM802.926 292.916V203.242H792.926V292.916H802.926ZM861.664 315.215H856.664V319.043L860.36 320.042L861.664 315.215ZM861.664 299.902L863.207 295.146L856.664 293.024V299.902H861.664ZM935.355 224.297H940.355V220.469L936.66 219.47L935.355 224.297ZM935.355 239.609L933.813 244.365L940.355 246.487V239.609H935.355ZM866.664 315.215V299.902H856.664V315.215H866.664ZM860.122 304.658C872.409 308.643 884.86 310.645 897.457 310.645V300.645C885.937 300.645 874.526 298.818 863.207 295.146L860.122 304.658ZM897.457 310.645C905.799 310.645 912.885 309.427 918.038 306.348C923.6 303.024 926.479 297.778 926.479 291.289H916.479C916.479 294.371 915.354 296.302 912.908 297.764C910.054 299.469 905.129 300.645 897.457 300.645V310.645ZM926.479 291.289C926.479 285.719 924.683 280.75 920.415 277.336C916.36 274.092 910.847 272.891 904.73 272.891V282.891C909.779 282.891 912.64 283.922 914.168 285.145C915.483 286.197 916.479 287.926 916.479 291.289H926.479ZM904.73 272.891H890.375V282.891H904.73V272.891ZM890.375 272.891C880.191 272.891 873.486 270.559 869.339 266.779C865.281 263.078 862.836 257.216 862.836 248.223H852.836C852.836 259.008 855.814 267.98 862.602 274.168C869.302 280.277 878.866 282.891 890.375 282.891V272.891ZM862.836 248.223C862.836 240.047 865.705 234.53 871.121 230.812C876.876 226.861 886.134 224.512 899.658 224.512V214.512C885.301 214.512 873.648 216.948 865.462 222.567C856.937 228.42 852.836 237.258 852.836 248.223H862.836ZM899.658 224.512C911.204 224.512 922.665 226.046 934.051 229.124L936.66 219.47C924.44 216.167 912.102 214.512 899.658 214.512V224.512ZM930.355 224.297V239.609H940.355V224.297H930.355ZM936.898 234.853C924.614 230.869 912.195 228.867 899.658 228.867V238.867C911.111 238.867 922.49 240.693 933.813 244.365L936.898 234.853ZM899.658 228.867C890.987 228.867 883.673 230.08 878.368 233.117C872.646 236.393 869.584 241.631 869.584 248.223H879.584C879.584 245.244 880.701 243.304 883.337 241.795C886.39 240.047 891.613 238.867 899.658 238.867V228.867ZM869.584 248.223C869.584 253.694 871.235 258.637 875.297 262.084C879.202 265.397 884.523 266.621 890.375 266.621V256.621C885.7 256.621 883.126 255.612 881.767 254.459C880.565 253.439 879.584 251.683 879.584 248.223H869.584ZM890.375 266.621H904.73V256.621H890.375V266.621ZM904.73 266.621C915.612 266.621 922.84 268.98 927.308 272.827C931.632 276.551 934.184 282.382 934.184 291.289H944.184C944.184 280.418 940.993 271.414 933.833 265.249C926.816 259.207 916.818 256.621 904.73 256.621V266.621ZM934.184 291.289C934.184 299.469 931.318 304.987 925.918 308.703C920.18 312.651 910.948 315 897.457 315V325C911.784 325 923.415 322.564 931.586 316.941C940.094 311.087 944.184 302.249 944.184 291.289H934.184ZM897.457 315C885.845 315 874.353 313.465 862.969 310.388L860.36 320.042C872.582 323.345 884.952 325 897.457 325V315ZM1049.72 219.512H1054.72V214.512H1049.72V219.512ZM1049.72 320V325H1054.72V320H1049.72ZM1037.57 320L1032.7 321.161L1033.62 325H1037.57V320ZM1034.5 307.176L1039.37 306.014L1037.66 298.855L1031.63 303.083L1034.5 307.176ZM963.109 219.512V214.512H958.109V219.512H963.109ZM980.814 219.512H985.814V214.512H980.814V219.512ZM1032.02 292.533L1035.41 296.206L1037.02 294.722V292.533H1032.02ZM1032.02 219.512V214.512H1027.02V219.512H1032.02ZM1044.72 219.512V320H1054.72V219.512H1044.72ZM1049.72 315H1037.57V325H1049.72V315ZM1042.43 318.839L1039.37 306.014L1029.64 308.337L1032.7 321.161L1042.43 318.839ZM1031.63 303.083C1020.11 311.167 1008.84 315 997.754 315V325C1011.29 325 1024.53 320.283 1037.38 311.269L1031.63 303.083ZM997.754 315C987.08 315 979.964 312.136 975.439 307.248C970.847 302.288 968.109 294.374 968.109 282.58H958.109C958.109 295.733 961.146 306.529 968.102 314.042C975.125 321.628 985.332 325 997.754 325V315ZM968.109 282.58V219.512H958.109V282.58H968.109ZM963.109 224.512H980.814V214.512H963.109V224.512ZM975.814 219.512V282.867H985.814V219.512H975.814ZM975.814 282.867C975.814 291.092 977.855 298.181 982.815 303.183C987.782 308.194 994.835 310.262 1003.02 310.262V300.262C996.398 300.262 992.35 298.597 989.916 296.143C987.474 293.68 985.814 289.572 985.814 282.867H975.814ZM1003.02 310.262C1014.7 310.262 1025.52 305.337 1035.41 296.206L1028.62 288.86C1020.13 296.701 1011.63 300.262 1003.02 300.262V310.262ZM1037.02 292.533V219.512H1027.02V292.533H1037.02ZM1032.02 224.512H1049.72V214.512H1032.02V224.512Z" fill="black"/>
</g>
<mask id="mask0_3_2" style="mask-type:alpha" maskUnits="userSpaceOnUse" x="56" y="56" width="400" height="400">
<circle cx="256" cy="256" r="200" fill="#EEB206"/>
</mask>
<g mask="url(#mask0_3_2)">
<path d="M399.306 190.131L220.705 112.205C217.464 110.791 216.381 106.73 218.486 103.889L270.582 33.6018C272.688 30.761 276.889 30.6166 279.184 33.3063L405.688 181.52C409.477 185.959 404.655 192.465 399.306 190.131Z" fill="#617B00" stroke="black" stroke-width="5"/>
<g filter="url(#filter1_d_3_2)">
<path d="M175.366 157.676C168.169 162.178 159.839 153.848 164.341 146.651L267.679 -18.5509C270.407 -22.9115 276.482 -23.6021 280.119 -19.9652L341.983 41.8989C345.62 45.5358 344.929 51.6105 340.568 54.3381L175.366 157.676Z" fill="#789900"/>
<path d="M166.461 147.977L269.799 -17.2251C271.674 -20.223 275.85 -20.6978 278.351 -18.1974L340.215 43.6667C342.715 46.1671 342.24 50.3434 339.242 52.2186L174.04 155.557C169.093 158.652 163.366 152.925 166.461 147.977Z" stroke="black" stroke-width="5"/>
</g>
<g filter="url(#filter2_i_3_2)">
<circle cx="256" cy="256" r="197.5" stroke="black" stroke-width="5"/>
</g>
</g>
<defs>
<filter id="filter0_i_3_2" x="52" y="56" width="404" height="404" filterUnits="userSpaceOnUse" color-interpolation-filters="sRGB">
<feFlood flood-opacity="0" result="BackgroundImageFix"/>
<feBlend mode="normal" in="SourceGraphic" in2="BackgroundImageFix" result="shape"/>
<feColorMatrix in="SourceAlpha" type="matrix" values="0 0 0 0 0 0 0 0 0 0 0 0 0 0 0 0 0 0 127 0" result="hardAlpha"/>
<feOffset dx="-32" dy="32"/>
<feGaussianBlur stdDeviation="2"/>
<feComposite in2="hardAlpha" operator="arithmetic" k2="-1" k3="1"/>
<feColorMatrix type="matrix" values="0 0 0 0 0 0 0 0 0 0 0 0 0 0 0 0 0 0 0.1 0"/>
<feBlend mode="normal" in2="shape" result="effect1_innerShadow_3_2"/>
</filter>
<filter id="filter1_d_3_2" x="159.068" y="-22.3088" width="189.258" height="189.258" filterUnits="userSpaceOnUse" color-interpolation-filters="sRGB">
<feFlood flood-opacity="0" result="BackgroundImageFix"/>
<feColorMatrix in="SourceAlpha" type="matrix" values="0 0 0 0 0 0 0 0 0 0 0 0 0 0 0 0 0 0 127 0" result="hardAlpha"/>
<feOffset dy="4"/>
<feGaussianBlur stdDeviation="2"/>
<feComposite in2="hardAlpha" operator="out"/>
<feColorMatrix type="matrix" values="0 0 0 0 0 0 0 0 0 0 0 0 0 0 0 0 0 0 0.25 0"/>
<feBlend mode="normal" in2="BackgroundImageFix" result="effect1_dropShadow_3_2"/>
<feBlend mode="normal" in="SourceGraphic" in2="effect1_dropShadow_3_2" result="shape"/>
</filter>
<filter id="filter2_i_3_2" x="52" y="56" width="404" height="404" filterUnits="userSpaceOnUse" color-interpolation-filters="sRGB">
<feFlood flood-opacity="0" result="BackgroundImageFix"/>
<feBlend mode="normal" in="SourceGraphic" in2="BackgroundImageFix" result="shape"/>
<feColorMatrix in="SourceAlpha" type="matrix" values="0 0 0 0 0 0 0 0 0 0 0 0 0 0 0 0 0 0 127 0" result="hardAlpha"/>
<feOffset dx="-32" dy="32"/>
<feGaussianBlur stdDeviation="2"/>
<feComposite in2="hardAlpha" operator="arithmetic" k2="-1" k3="1"/>
<feColorMatrix type="matrix" values="0 0 0 0 0 0 0 0 0 0 0 0 0 0 0 0 0 0 0.1 0"/>
<feBlend mode="normal" in2="shape" result="effect1_innerShadow_3_2"/>
</filter>
</defs>
</svg>
