<svg width="512" height="512" viewBox="0 0 512 512" fill="none" xmlns="http://www.w3.org/2000/svg">
<g filter="url(#filter0_i_1_2)">
<circle cx="256" cy="256" r="200" fill="#EEB206"/>
</g>
<circle cx="256" cy="256" r="197.5" stroke="black" stroke-width="5"/>
<mask id="mask0_1_2" style="mask-type:alpha" maskUnits="userSpaceOnUse" x="56" y="56" width="400" height="400">
<circle cx="256" cy="256" r="200" fill="#EEB206"/>
</mask>
<g mask="url(#mask0_1_2)">
<path d="M399.306 190.131L220.705 112.205C217.464 110.791 216.381 106.73 218.486 103.889L270.582 33.6019C272.688 30.761 276.889 30.6167 279.184 33.3063L405.688 181.52C409.477 185.959 404.655 192.465 399.306 190.131Z" fill="#617B00" stroke="black" stroke-width="5"/>
<g filter="url(#filter1_d_1_2)">
<path d="M175.366 157.676C168.169 162.178 159.839 153.848 164.341 146.651L267.679 -18.5508C270.407 -22.9114 276.482 -23.6021 280.119 -19.9651L341.983 41.8989C345.62 45.5359 344.929 51.6105 340.568 54.3382L175.366 157.676Z" fill="#789900"/>
<path d="M166.461 147.977L269.799 -17.225C271.674 -20.2229 275.85 -20.6978 278.351 -18.1974L340.215 43.6667C342.715 46.1671 342.24 50.3434 339.242 52.2187L174.04 155.557C169.093 158.652 163.366 152.925 166.461 147.977Z" stroke="black" stroke-width="5"/>
</g>
<g filter="url(#filter2_i_1_2)">
<circle cx="256" cy="256" r="197.5" stroke="black" stroke-width="5"/>
</g>
</g>
<defs>
<filter id="filter0_i_1_2" x="52" y="56" width="404" height="404" filterUnits="userSpaceOnUse" color-interpolation-filters="sRGB">
<feFlood flood-opacity="0" result="BackgroundImageFix"/>
<feBlend mode="normal" in="SourceGraphic" in2="BackgroundImageFix" result="shape"/>
<feColorMatrix in="SourceAlpha" type="matrix" values="0 0 0 0 0 0 0 0 0 0 0 0 0 0 0 0 0 0 127 0" result="hardAlpha"/>
<feOffset dx="-32" dy="32"/>
<feGaussianBlur stdDeviation="2"/>
<feComposite in2="hardAlpha" operator="arithmetic" k2="-1" k3="1"/>
<feColorMatrix type="matrix" values="0 0 0 0 0 0 0 0 0 0 0 0 0 0 0 0 0 0 0.1 0"/>
<feBlend mode="normal" in2="shape" result="effect1_innerShadow_1_2"/>
</filter>
<filter id="filter1_d_1_2" x="159.068" y="-22.3088" width="189.258" height="189.258" filterUnits="userSpaceOnUse" color-interpolation-filters="sRGB">
<feFlood flood-opacity="0" result="BackgroundImageFix"/>
<feColorMatrix in="SourceAlpha" type="matrix" values="0 0 0 0 0 0 0 0 0 0 0 0 0 0 0 0 0 0 127 0" result="hardAlpha"/>
<feOffset dy="4"/>
<feGaussianBlur stdDeviation="2"/>
<feComposite in2="hardAlpha" operator="out"/>
<feColorMatrix type="matrix" values="0 0 0 0 0 0 0 0 0 0 0 0 0 0 0 0 0 0 0.25 0"/>
<feBlend mode="normal" in2="BackgroundImageFix" result="effect1_dropShadow_1_2"/>
<feBlend mode="normal" in="SourceGraphic" in2="effect1_dropShadow_1_2" result="shape"/>
</filter>
<filter id="filter2_i_1_2" x="52" y="56" width="404" height="404" filterUnits="userSpaceOnUse" color-interpolation-filters="sRGB">
<feFlood flood-opacity="0" result="BackgroundImageFix"/>
<feBlend mode="normal" in="SourceGraphic" in2="BackgroundImageFix" result="shape"/>
<feColorMatrix in="SourceAlpha" type="matrix" values="0 0 0 0 0 0 0 0 0 0 0 0 0 0 0 0 0 0 127 0" result="hardAlpha"/>
<feOffset dx="-32" dy="32"/>
<feGaussianBlur stdDeviation="2"/>
<feComposite in2="hardAlpha" operator="arithmetic" k2="-1" k3="1"/>
<feColorMatrix type="matrix" values="0 0 0 0 0 0 0 0 0 0 0 0 0 0 0 0 0 0 0.1 0"/>
<feBlend mode="normal" in2="shape" result="effect1_innerShadow_1_2"/>
</filter>
</defs>
</svg>
